<?xml version="1.0" encoding="utf-8"?><!-- Uploaded to: SVG Repo, www.svgrepo.com, Generator: SVG Repo Mixer Tools -->
<svg width="800px" height="800px" viewBox="0 0 960 960" fill="none" xmlns="http://www.w3.org/2000/svg">
<path d="M208.113 215.696C195.539 142.913 205.506 111.094 284.35 99.2351C426.285 84.4801 569.827 78.6961 712.437 83.9621C780.938 86.3521 794.594 150.52 791.492 205.703C791.58 209.403 791.653 211.866 795.528 214.043C827.453 231.978 844.788 260.262 847.253 295.938C850.063 352.43 844.58 409.337 844.283 465.892C827.759 582.219 904.663 863.751 735.902 878.222C588.328 878.397 440.554 869.996 293.171 881.037C106.264 892.21 134.314 810.382 133.423 663.918C137.313 542.736 69.1408 274.211 208.113 215.696ZM177.043 694.646C188.967 734.202 151.835 821.284 213.14 830.875C277.55 842.01 342.721 830.664 407.417 829.545C477.029 828.483 546.693 829.43 616.289 831.417C686.153 825.676 782.068 866.716 794.053 767.459C810.335 642.215 792.161 514.677 800.542 388.742C811.715 257.212 798.251 243.062 665.101 239.325C568.339 235.138 473.378 245.485 376.812 245.037C304.69 250.562 196.615 234.006 179.457 327.126C166.052 448.612 181.397 572.397 177.043 694.646ZM242.041 205.115C410.181 198.585 576.94 186.239 744.73 198.198C744.605 172.741 744.781 132.404 711.687 130.327C622.305 124.139 532.38 130.627 442.87 132.001C382.07 136.633 319.345 134.993 260.51 152.689C238.072 158.454 244.602 188.671 242.041 205.115Z" fill="#000000"/>
<path d="M177.044 694.645C181.394 572.398 166.057 448.61 179.449 327.122C196.657 234.001 304.672 250.592 376.814 245.039C473.376 245.483 568.342 235.135 665.106 239.319C797.444 243.234 811.977 256.444 800.533 388.744C792.165 514.676 810.333 642.213 794.062 767.456C782.068 866.681 686.229 825.716 616.288 831.419C546.694 829.429 477.03 828.481 407.418 829.543C342.721 830.665 277.551 842.007 213.146 830.873C151.741 821.425 189.038 734.063 177.044 694.645ZM458.627 773.382C543.421 770.714 594.439 772.007 668.076 765.402C724.467 762.94 754.685 714.279 761.171 662.612C764.274 610.75 788.641 424.654 756.013 394.429C747.194 371.063 689.012 377.873 666.639 373.075C542.179 367.413 417.476 365.64 293.054 372.728C213.075 375.058 211.314 476.281 208.43 536.048C185.366 765.5 255.414 772.713 458.627 773.382ZM536.542 345.208C599.904 351.648 680.23 343.818 748.932 341.459C777.468 339.28 772.987 296.122 745.485 298.454C579.235 303.863 412.783 306.17 246.545 313.216C233.517 313.684 224.685 322.836 224.988 334.153C212.735 378.365 494.21 338.155 536.542 345.208Z" fill="white"/>
<path d="M242.039 205.115C244.541 188.687 238.105 158.442 260.508 152.692C319.337 134.993 382.073 136.634 442.868 132.001C532.379 130.627 622.302 124.139 711.684 130.324C744.845 132.419 744.504 172.722 744.728 198.198C576.929 186.24 410.189 198.585 242.039 205.115ZM401.898 186.819C434.442 187.482 435.763 141.5 402.021 142.897C372.174 142.18 372.464 187.451 401.898 186.819ZM687.494 143.156C657.683 142.045 656.905 187.956 686.484 187.988C717.632 189.116 719.249 142.813 687.494 143.156ZM482.803 185.356C513.153 186.613 512.828 141.934 483.165 142.379C453.892 141.507 453.13 185.883 482.803 185.356ZM311.906 148.202C284.105 147.468 283.635 189.732 310.942 189.856C342.613 190.743 345.678 146.974 311.906 148.202Z" fill="white"/>
<path d="M458.627 773.384C255.828 772.647 185.247 765.77 208.439 536.05C211.181 476.299 213.154 375.037 293.052 372.727C417.476 365.643 542.178 367.415 666.637 373.083C689.267 377.784 747.128 371.22 756.008 394.426C788.714 424.365 764.212 610.89 761.179 662.616C754.616 714.241 724.52 762.975 668.074 765.401C594.424 771.999 543.434 770.718 458.627 773.384ZM513.979 728.13C551.125 719.655 606.16 728.152 649.185 722.104C716.507 727.785 719.451 648.993 722.35 600.026C721.601 538.702 732.885 475.25 719.357 415.024C711.116 407.632 695.836 410.652 685.15 408.675C578.462 402.967 471.681 403.796 364.9 405.796C328.856 409.437 274.15 400.726 263.617 446.578C233.164 735.995 223.379 728.734 513.979 728.13Z" fill="#000000"/>
<path d="M536.543 345.21C492.761 338.122 213.699 378.47 224.99 334.164C224.687 322.838 233.519 313.686 246.547 313.212C412.785 306.172 579.236 303.865 745.489 298.462C772.785 296.132 777.674 339.28 748.932 341.454C680.297 343.82 599.861 351.653 536.543 345.21Z" fill="#000000"/>
<path d="M401.899 186.82C372.465 187.448 372.174 142.179 402.026 142.898C435.765 141.503 434.443 187.485 401.899 186.82Z" fill="#000000"/>
<path d="M687.497 143.157C719.252 142.817 717.634 189.121 686.484 187.989C656.908 187.953 657.685 142.043 687.497 143.157Z" fill="#000000"/>
<path d="M482.804 185.357C453.131 185.881 453.893 141.505 483.169 142.38C512.829 141.938 513.155 186.616 482.804 185.357Z" fill="#000000"/>
<path d="M311.909 148.201C345.682 146.975 342.615 190.746 310.941 189.855C283.64 189.728 284.107 147.465 311.909 148.201Z" fill="#000000"/>
<path d="M513.977 728.129C230.811 728.364 233.482 739.481 261.598 454.486C267.526 402.446 325.721 408.449 364.9 405.796C471.68 403.796 578.461 402.967 685.148 408.679C695.92 410.579 711.048 407.69 719.352 415.021C732.894 475.247 721.588 538.704 722.354 600.028C719.46 648.965 716.52 727.827 649.183 722.109C606.213 728.156 551.087 719.686 513.977 728.129ZM631.759 461.884C605.37 393.54 538.236 502.358 591.128 564.603C649.15 638.739 565.734 633.058 574.559 667.361C619.011 696.994 676.672 597.509 634.328 555.254C605.6 515.755 605.491 502.108 631.759 461.884ZM369.337 465.117C344.893 396.638 275.091 502.095 337.876 602.546C351.192 627.398 294.039 647.01 321.49 667.796C363.189 673.861 387.8 613.785 372.749 579.301C351.195 539.498 346.229 505.731 369.337 465.117ZM499.048 471.67C478.012 395.879 400.249 513.08 471.632 598.823C493.943 628.345 438.058 644.267 451.102 669.057C460.689 682.56 477.87 668.433 487.283 660.337C560.004 591.661 442.088 556.459 499.048 471.67Z" fill="white"/>
<path d="M631.759 461.882C605.427 502.229 605.644 515.729 634.337 555.248C676.673 597.506 619.007 696.997 574.558 667.365C566.032 632.841 649.094 638.594 591.121 564.602C538.231 502.326 605.381 393.55 631.759 461.882Z" fill="#000000"/>
<path d="M369.338 465.117C346.205 505.797 351.215 539.465 372.756 579.297C387.819 613.79 363.176 673.859 321.493 667.799C294.044 646.997 351.192 627.399 337.869 602.549C275.049 501.928 344.969 396.696 369.338 465.117Z" fill="#000000"/>
<path d="M499.05 471.669C442.078 556.545 560.022 591.581 487.288 660.339C482.247 664.317 477.318 668.582 471.791 671.762C454.792 682.389 439.89 662.048 454.322 648.344C467.028 634.783 484.933 618.223 471.627 598.824C400.426 513.648 477.722 395.698 499.05 471.669Z" fill="#000000"/>
</svg>